<svg width="18" height="20" viewBox="0 0 18 20" fill="none" xmlns="http://www.w3.org/2000/svg">
<mask id="path-1-inside-1" fill="white">
<path fill-rule="evenodd" clip-rule="evenodd" d="M4 1C4 0.447715 4.44772 0 5 0C5.55228 0 6 0.447715 6 1V2H8V1C8 0.447715 8.44771 0 9 0C9.55229 0 10 0.447715 10 1V2H12V1C12 0.447715 12.4477 0 13 0C13.5523 0 14 0.447715 14 1V2H16C17.1046 2 18 2.89543 18 4V18C18 19.1046 17.1046 20 16 20H2C0.89543 20 0 19.1046 0 18V4C0 2.89543 0.895431 2 2 2H4V1ZM12 4V5C12 5.55228 12.4477 6 13 6C13.5523 6 14 5.55228 14 5V4H16V18H2L2 4H4V5C4 5.55228 4.44772 6 5 6C5.55228 6 6 5.55228 6 5V4H8V5C8 5.55228 8.44771 6 9 6C9.55229 6 10 5.55228 10 5V4H12ZM6 11V9H4V11H6ZM10 9V11H8V9H10ZM14 11V9H12V11H14ZM6 13V15H4V13H6ZM8 13V15H10V13H8Z"/>
</mask>
<path fill-rule="evenodd" clip-rule="evenodd" d="M4 1C4 0.447715 4.44772 0 5 0C5.55228 0 6 0.447715 6 1V2H8V1C8 0.447715 8.44771 0 9 0C9.55229 0 10 0.447715 10 1V2H12V1C12 0.447715 12.4477 0 13 0C13.5523 0 14 0.447715 14 1V2H16C17.1046 2 18 2.89543 18 4V18C18 19.1046 17.1046 20 16 20H2C0.89543 20 0 19.1046 0 18V4C0 2.89543 0.895431 2 2 2H4V1ZM12 4V5C12 5.55228 12.4477 6 13 6C13.5523 6 14 5.55228 14 5V4H16V18H2L2 4H4V5C4 5.55228 4.44772 6 5 6C5.55228 6 6 5.55228 6 5V4H8V5C8 5.55228 8.44771 6 9 6C9.55229 6 10 5.55228 10 5V4H12ZM6 11V9H4V11H6ZM10 9V11H8V9H10ZM14 11V9H12V11H14ZM6 13V15H4V13H6ZM8 13V15H10V13H8Z" fill="#23313B"/>
<path d="M6 2H5V3H6V2ZM8 2V3H9V2H8ZM10 2H9V3H10V2ZM12 2V3H13V2H12ZM14 2H13V3H14V2ZM4 2V3H5V2H4ZM12 4H13V3H12V4ZM14 4V3H13V4H14ZM16 4H17V3H16V4ZM16 18V19H17V18H16ZM2 18H1V19H2V18ZM2 4V3H1V4H2ZM4 4H5V3H4V4ZM6 4V3H5V4H6ZM8 4H9V3H8V4ZM10 4V3H9V4H10ZM6 9H7V8H6V9ZM6 11V12H7V11H6ZM4 9V8H3V9H4ZM4 11H3V12H4V11ZM10 11V12H11V11H10ZM10 9H11V8H10V9ZM8 11H7V12H8V11ZM8 9V8H7V9H8ZM14 9H15V8H14V9ZM14 11V12H15V11H14ZM12 9V8H11V9H12ZM12 11H11V12H12V11ZM6 15V16H7V15H6ZM6 13H7V12H6V13ZM4 15H3V16H4V15ZM4 13V12H3V13H4ZM8 15H7V16H8V15ZM8 13V12H7V13H8ZM10 15V16H11V15H10ZM10 13H11V12H10V13ZM5 -1C3.89543 -1 3 -0.104569 3 1H5V1V-1ZM7 1C7 -0.104569 6.10457 -1 5 -1V1H7ZM7 2V1H5V2H7ZM8 1H6V3H8V1ZM7 1V2H9V1H7ZM9 -1C7.89543 -1 7 -0.104569 7 1H9V1V-1ZM11 1C11 -0.104569 10.1046 -1 9 -1V1H11ZM11 2V1H9V2H11ZM12 1H10V3H12V1ZM13 2V1H11V2H13ZM13 1V1V-1C11.8954 -1 11 -0.104569 11 1H13ZM13 1H15C15 -0.104569 14.1046 -1 13 -1V1ZM13 1V2H15V1H13ZM16 1H14V3H16V1ZM19 4C19 2.34315 17.6569 1 16 1V3C16.5523 3 17 3.44772 17 4H19ZM19 18V4H17V18H19ZM16 21C17.6569 21 19 19.6569 19 18H17C17 18.5523 16.5523 19 16 19V21ZM2 21H16V19H2V21ZM-1 18C-1 19.6569 0.343146 21 2 21V19C1.44771 19 1 18.5523 1 18H-1ZM-1 4V18H1V4H-1ZM2 1C0.343146 1 -1 2.34315 -1 4H1C1 3.44772 1.44772 3 2 3V1ZM4 1H2V3H4V1ZM3 1V2H5V1H3ZM13 5V4H11V5H13ZM13 5H11C11 6.10457 11.8954 7 13 7V5ZM13 5V7C14.1046 7 15 6.10457 15 5H13ZM13 4V5H15V4H13ZM16 3H14V5H16V3ZM17 18V4H15V18H17ZM2 19H16V17H2V19ZM1 4L1 18H3V4H1ZM4 3H2V5H4V3ZM5 5V4H3V5H5ZM5 5H3C3 6.10457 3.89543 7 5 7V5ZM5 5V7C6.10457 7 7 6.10457 7 5H5ZM5 4V5H7V4H5ZM8 3H6V5H8V3ZM9 5V4H7V5H9ZM9 5H7C7 6.10457 7.89543 7 9 7V5ZM9 5V7C10.1046 7 11 6.10457 11 5H9ZM9 4V5H11V4H9ZM12 3H10V5H12V3ZM5 9V11H7V9H5ZM4 10H6V8H4V10ZM5 11V9H3V11H5ZM6 10H4V12H6V10ZM11 11V9H9V11H11ZM8 12H10V10H8V12ZM7 9V11H9V9H7ZM10 8H8V10H10V8ZM13 9V11H15V9H13ZM12 10H14V8H12V10ZM13 11V9H11V11H13ZM14 10H12V12H14V10ZM7 15V13H5V15H7ZM4 16H6V14H4V16ZM3 13V15H5V13H3ZM6 12H4V14H6V12ZM9 15V13H7V15H9ZM10 14H8V16H10V14ZM9 13V15H11V13H9ZM8 14H10V12H8V14Z" fill="#23313B" mask="url(#path-1-inside-1)"/>
</svg>
