<svg width="84" height="24" viewBox="0 0 84 24" fill="none" xmlns="http://www.w3.org/2000/svg">
<path fill-rule="evenodd" clip-rule="evenodd" d="M18.7781 11.0092C18.6943 12.8117 17.4171 15.2796 14.9465 18.4123C12.3922 21.6841 10.231 23.3204 8.46324 23.3204C7.36838 23.3204 6.44133 22.3243 5.68438 20.3311C5.17905 18.5044 4.67352 16.6777 4.168 14.851C3.60591 12.859 3.00305 11.8618 2.35829 11.8618C2.21771 11.8618 1.7259 12.1534 0.88381 12.734L0 11.6116C0.927048 10.8088 1.84171 10.006 2.74171 9.20185C3.9781 8.14889 4.90648 7.5951 5.52533 7.53917C6.98743 7.40068 7.88743 8.38571 8.22533 10.4943C8.5901 12.7691 8.84286 14.1841 8.98457 14.738C9.40629 16.6254 9.86971 17.5682 10.3766 17.5682C10.7697 17.5682 11.3602 16.9558 12.148 15.7317C12.9345 14.5072 13.3562 13.5757 13.413 12.9356C13.5251 11.8788 13.1034 11.3493 12.148 11.3493C11.6981 11.3493 11.2345 11.4513 10.7575 11.6529C11.6808 8.67227 13.445 7.22465 16.0486 7.30704C17.9792 7.36296 18.8891 8.59702 18.7781 11.0092Z" fill="#17272E"/>
<path fill-rule="evenodd" clip-rule="evenodd" d="M26.7039 2.06728C26.6757 2.75712 26.3243 3.41919 25.6487 4.05311C24.8892 4.76979 23.9892 5.12822 22.9489 5.12822C21.3462 5.12822 20.5719 4.4395 20.6287 3.06076C20.6557 2.34426 21.0847 1.65442 21.9144 0.992353C22.7443 0.331597 23.665 0 24.6784 0C25.2689 0 25.7609 0.228384 26.1553 0.682712C26.5487 1.13817 26.7311 1.59962 26.7039 2.06728ZM30.374 16.8477C29.5862 18.3148 28.5039 19.6436 27.1256 20.834C25.2405 22.4396 23.3569 23.2426 21.4732 23.2426C20.6003 23.2426 19.9321 22.9656 19.4687 22.4116C19.005 21.8578 18.787 21.1389 18.8153 20.252C18.8424 19.3389 19.1308 17.9263 19.6793 16.0156C20.2281 14.105 20.503 13.08 20.503 12.9415C20.503 12.2224 20.2489 11.8617 19.7435 11.8617C19.5746 11.8617 19.0963 12.1533 18.3085 12.7339L17.3384 11.6115C18.2382 10.8087 19.1382 10.0059 20.0382 9.20178C21.2475 8.14882 22.1475 7.59484 22.7393 7.5391C23.6664 7.45653 24.3481 7.72489 24.7845 8.3468C25.2197 8.96852 25.3812 9.77509 25.2702 10.7688C24.9041 12.4534 24.5094 14.5922 24.0879 17.1864C24.0595 18.3743 24.4959 18.9671 25.3959 18.9671C25.7892 18.9671 26.4919 18.5578 27.5052 17.7368C28.3485 17.0541 29.0376 16.4117 29.5727 15.8091L30.374 16.8477Z" fill="#17272E"/>
<path fill-rule="evenodd" clip-rule="evenodd" d="M56.7185 16.8477C55.9307 18.3149 54.8484 19.6437 53.4699 20.834C51.5852 22.4398 49.7012 23.2427 47.8177 23.2427C45.988 23.2427 45.1031 22.2467 45.1594 20.2523C45.1867 19.3656 45.3631 18.3004 45.6859 17.0543C46.009 15.8081 46.1853 14.8388 46.2137 14.1465C46.2421 13.0947 45.9177 12.5675 45.2396 12.5675C44.5063 12.5675 43.6322 13.4274 42.6164 15.1449C41.5438 16.9461 40.9644 18.6915 40.8806 20.381C40.8238 21.5738 40.9421 22.4884 41.2356 23.1248C39.273 23.1807 37.8981 22.8613 37.1141 22.1689C36.4114 21.5591 36.0897 20.5488 36.1465 19.1349C36.1735 18.2482 36.3116 17.3615 36.5606 16.475C36.8084 15.5883 36.9465 14.7988 36.9749 14.1052C37.0316 13.0802 36.6507 12.5675 35.8345 12.5675C35.1293 12.5675 34.3686 13.3582 33.5526 14.9371C32.7364 16.5161 32.2853 18.1657 32.2013 19.8831C32.1446 21.4353 32.2457 22.5151 32.5034 23.1248C30.5728 23.1807 29.2019 22.7797 28.3907 21.9223C27.7177 21.2047 27.4107 20.1138 27.4674 18.6491C27.4945 17.9311 27.6227 16.9292 27.8545 15.6441C28.0863 14.359 28.2156 13.3582 28.2429 12.6392C28.2983 12.1425 28.1713 11.8935 27.8631 11.8935C27.6941 11.8935 27.2158 12.174 26.4282 12.734L25.416 11.6118C25.5566 11.5024 26.4417 10.6983 28.0739 9.20184C29.2549 8.12223 30.0562 7.56825 30.4779 7.54029C31.209 7.48455 31.7994 7.782 32.2495 8.43318C32.6994 9.08418 32.925 9.83951 32.925 10.6983C32.925 10.9752 32.8968 11.2387 32.8413 11.4879C33.2629 10.8514 33.7547 10.2963 34.3181 9.82506C35.6113 8.7173 37.06 8.09295 38.6627 7.95446C40.041 7.84392 41.0248 8.1622 41.6166 8.9104C42.0935 9.52011 42.3179 10.3935 42.2909 11.529C42.4882 11.3639 42.6989 11.183 42.9246 10.9886C43.5707 10.2405 44.2031 9.64528 44.8219 9.20184C45.8623 8.45364 46.9459 8.03834 48.0703 7.95446C49.4202 7.84392 50.3903 8.16107 50.981 8.90684C51.4863 9.51411 51.712 10.3837 51.6566 11.5146C51.628 12.2881 51.4383 13.413 51.0871 14.8899C50.7343 16.3667 50.5593 17.2146 50.5593 17.4357C50.5311 18.0163 50.5878 18.4158 50.7282 18.6369C50.8688 18.858 51.2053 18.9672 51.7404 18.9672C52.1337 18.9672 52.8362 18.5579 53.8497 17.7369C54.693 17.0543 55.3819 16.4118 55.9172 15.8094L56.7185 16.8477Z" fill="#17272E"/>
<path fill-rule="evenodd" clip-rule="evenodd" d="M62.9616 12.4653C62.9888 11.722 62.6804 11.3491 62.0345 11.3491C61.1913 11.3491 60.3357 11.9213 59.4654 13.0653C58.5949 14.2095 58.145 15.305 58.1178 16.352C58.1018 16.352 58.1018 16.5318 58.1178 16.89C59.4936 16.3944 60.6871 15.6366 61.698 14.6163C62.5117 13.7347 62.9332 13.0167 62.9616 12.4653ZM72.538 16.805C71.7218 18.1338 70.1193 19.4614 67.7288 20.7889C64.7479 22.4773 61.7239 23.3202 58.6591 23.3202C56.3808 23.3202 54.7486 22.5718 53.7648 21.0769C53.062 20.0517 52.7242 18.8334 52.7526 17.4196C52.7799 15.1763 53.7932 13.0435 55.7903 11.02C57.9835 8.80463 60.5711 7.69556 63.5522 7.69556C66.3086 7.69556 67.7707 8.80201 67.9397 11.0127C68.0519 12.4216 67.2641 13.873 65.5776 15.3658C63.7764 16.997 61.5119 18.0331 58.7848 18.475C59.2903 19.1662 60.0496 19.5113 61.0629 19.5113C63.0873 19.5113 65.2953 19.0048 67.6869 17.9893C69.4018 17.2764 70.7517 16.5353 71.7366 15.7678L72.538 16.805Z" fill="#17272E"/>
<path fill-rule="evenodd" clip-rule="evenodd" d="M79.2225 13.8623C79.2509 13.1129 79.145 12.4253 78.9058 11.801C78.6665 11.1767 78.3216 10.8634 77.8726 10.8634C76.4378 10.8634 75.2566 11.6274 74.3298 13.1542C73.5406 14.404 73.1189 15.7363 73.0635 17.1512C73.0353 17.8461 73.1622 18.457 73.4431 18.9841C73.7513 19.5951 74.1877 19.8999 74.7511 19.8999C76.0161 19.8999 77.0997 19.1652 77.9997 17.693C78.7589 16.4711 79.166 15.1947 79.2225 13.8623ZM83.9898 14.019C83.8766 16.5646 82.921 18.7644 81.1212 20.6177C79.3212 22.4712 77.0848 23.3981 74.4134 23.3981C72.1919 23.3981 70.5041 22.6923 69.3515 21.2809C68.5083 20.2304 68.0435 18.9162 67.9597 17.3396C67.818 14.9603 68.6894 12.7738 70.5755 10.782C72.5999 8.56891 75.1445 7.46265 78.2104 7.46265C80.1782 7.46265 81.6686 8.11364 82.6818 9.4132C83.6385 10.6035 84.0738 12.1386 83.9898 14.019Z" fill="#17272E"/>
</svg>
