<svg width="596" height="82" viewBox="0 0 596 82" fill="none" xmlns="http://www.w3.org/2000/svg">
<path fill-rule="evenodd" clip-rule="evenodd" d="M53.1276 31.8335C52.8924 36.8905 49.3093 43.8144 42.3778 52.6032C35.2116 61.7826 29.1484 66.3731 24.1887 66.3731C21.117 66.3731 18.5161 63.5785 16.3924 57.9866C14.9747 52.8617 13.5564 47.7368 12.1381 42.6119C10.5611 37.0232 8.8698 34.2254 7.06088 34.2254C6.6665 34.2254 5.2867 35.0435 2.92416 36.6725L0.44458 33.5236C3.04546 31.2712 5.61161 29.0189 8.13661 26.7628C11.6053 23.8087 14.21 22.255 15.9462 22.0981C20.0482 21.7096 22.5732 24.4731 23.5212 30.3888C24.5446 36.771 25.2537 40.7407 25.6513 42.2949C26.8344 47.5899 28.1346 50.235 29.5566 50.235C30.6596 50.235 32.3162 48.5171 34.5265 45.0827C36.733 41.6474 37.9161 39.0338 38.0754 37.238C38.3901 34.2733 37.207 32.7875 34.5265 32.7875C33.2642 32.7875 31.9635 33.0739 30.6254 33.6394C33.2156 25.2771 38.1651 21.2157 45.4697 21.4468C50.8863 21.6037 53.4391 25.066 53.1276 31.8335Z" fill="#17272E"/>
<path fill-rule="evenodd" clip-rule="evenodd" d="M75.3638 6.74658C75.2847 8.68197 74.2988 10.5394 72.4033 12.3179C70.2727 14.3286 67.7477 15.3342 64.8288 15.3342C60.3324 15.3342 58.1601 13.402 58.3194 9.53384C58.3953 7.52368 59.5987 5.58829 61.9265 3.73082C64.2549 1.87703 66.8381 0.946716 69.6811 0.946716C71.3377 0.946716 72.718 1.58746 73.8248 2.8621C74.9283 4.1399 75.4402 5.43455 75.3638 6.74658ZM85.6605 48.2138C83.4503 52.3299 80.4139 56.058 76.547 59.3976C71.2581 63.9022 65.9735 66.1551 60.6889 66.1551C58.2398 66.1551 56.3652 65.378 55.065 63.8238C53.7643 62.2701 53.1524 60.2531 53.2321 57.7649C53.3079 55.203 54.117 51.2401 55.6561 45.8793C57.1956 40.5191 57.9668 37.6434 57.9668 37.2548C57.9668 35.2373 57.2539 34.2254 55.8361 34.2254C55.3621 34.2254 54.0203 35.0435 51.81 36.6725L49.0884 33.5235C51.6128 31.2712 54.1378 29.0189 56.6628 26.7628C60.0557 23.8087 62.5807 22.2545 64.241 22.0981C66.8419 21.8664 68.7545 22.6193 69.9788 24.3641C71.1999 26.1084 71.6531 28.3713 71.3415 31.1591C70.3144 35.8854 69.2071 41.8858 68.0245 49.1641C67.9449 52.4968 69.1692 54.16 71.6942 54.16C72.7977 54.16 74.7691 53.0117 77.6121 50.7083C79.9778 48.7929 81.9112 46.9907 83.4123 45.3002L85.6605 48.2138Z" fill="#17272E"/>
<path fill-rule="evenodd" clip-rule="evenodd" d="M159.571 48.2136C157.361 52.3297 154.325 56.0579 150.457 59.3974C145.169 63.9026 139.884 66.155 134.6 66.155C129.466 66.155 126.984 63.3609 127.142 57.7653C127.218 55.2776 127.713 52.2892 128.619 48.7933C129.525 45.2968 130.02 42.5775 130.1 40.6353C130.179 37.6843 129.269 36.2053 127.367 36.2053C125.309 36.2053 122.857 38.6177 120.007 43.4362C116.998 48.4895 115.372 53.3864 115.137 58.1264C114.978 61.4728 115.31 64.039 116.133 65.8243C110.627 65.9812 106.77 65.0851 104.57 63.1424C102.599 61.4318 101.696 58.5971 101.855 54.6305C101.931 52.1428 102.319 49.6552 103.017 47.168C103.712 44.6803 104.1 42.4654 104.18 40.5194C104.339 37.6437 103.27 36.2053 100.98 36.2053C99.0018 36.2053 96.8674 38.4235 94.5781 42.8534C92.2882 47.2833 91.0228 51.9112 90.7871 56.7297C90.6279 61.0843 90.9116 64.1137 91.6347 65.8243C86.2181 65.9812 82.3721 64.8561 80.0961 62.4505C78.2081 60.4372 77.3466 57.3767 77.5059 53.2674C77.5818 51.2531 77.9414 48.4421 78.5918 44.8367C79.2421 41.2313 79.605 38.4235 79.6814 36.4065C79.8369 35.0128 79.4805 34.3142 78.6158 34.3142C78.1418 34.3142 76.8 35.1013 74.5902 36.6723L71.7505 33.5239C72.1449 33.217 74.6282 30.9609 79.2074 26.7627C82.5206 23.7337 84.7688 22.1795 85.9519 22.1011C88.0029 21.9447 89.6596 22.7792 90.9223 24.6061C92.1846 26.4326 92.8173 28.5517 92.8173 30.9609C92.8173 31.738 92.7382 32.4772 92.5827 33.1764C93.7653 31.3905 95.1451 29.8332 96.7258 28.5112C100.354 25.4033 104.418 23.6516 108.915 23.2631C112.782 22.953 115.542 23.8459 117.202 25.945C118.54 27.6556 119.17 30.1059 119.094 33.2917C119.647 32.8284 120.239 32.3209 120.872 31.7754C122.684 29.6768 124.459 28.0068 126.195 26.7627C129.114 24.6635 132.154 23.4984 135.308 23.2631C139.096 22.953 141.817 23.8427 143.474 25.935C144.892 27.6388 145.525 30.0785 145.37 33.2512C145.29 35.4214 144.757 38.5772 143.772 42.7207C142.782 46.8642 142.291 49.2429 142.291 49.8631C142.212 51.4921 142.371 52.613 142.765 53.2332C143.16 53.8534 144.104 54.1598 145.605 54.1598C146.709 54.1598 148.679 53.0116 151.523 50.7081C153.889 48.7933 155.821 46.9906 157.323 45.3005L159.571 48.2136Z" fill="#17272E"/>
<path fill-rule="evenodd" clip-rule="evenodd" d="M177.086 35.9191C177.163 33.8336 176.297 32.7875 174.485 32.7875C172.12 32.7875 169.719 34.3928 167.278 37.6023C164.835 40.8123 163.573 43.886 163.497 46.8233C163.452 46.8233 163.452 47.3277 163.497 48.3327C167.357 46.9423 170.705 44.8163 173.541 41.9537C175.824 39.4803 177.007 37.4659 177.086 35.9191ZM203.953 48.0942C201.664 51.8223 197.168 55.5468 190.461 59.2712C182.098 64.0081 173.614 66.3731 165.016 66.3731C158.624 66.3731 154.044 64.2734 151.284 60.0794C149.312 57.2031 148.365 53.7851 148.445 49.8185C148.521 43.5248 151.364 37.5412 156.967 31.864C163.12 25.6488 170.38 22.5372 178.744 22.5372C186.477 22.5372 190.579 25.6414 191.053 31.8435C191.367 35.7964 189.157 39.8683 184.426 44.0566C179.372 48.6328 173.019 51.5396 165.368 52.7795C166.786 54.7186 168.917 55.6868 171.76 55.6868C177.439 55.6868 183.634 54.2658 190.344 51.417C195.155 49.4168 198.942 47.3377 201.705 45.1843L203.953 48.0942Z" fill="#17272E"/>
<path fill-rule="evenodd" clip-rule="evenodd" d="M222.708 39.8381C222.787 37.7358 222.49 35.8068 221.819 34.0551C221.148 32.3035 220.18 31.4248 218.92 31.4248C214.895 31.4248 211.581 33.5681 208.981 37.8517C206.767 41.3581 205.584 45.0957 205.428 49.0655C205.349 51.0151 205.705 52.7288 206.493 54.2077C207.358 55.922 208.582 56.777 210.163 56.777C213.712 56.777 216.752 54.7158 219.277 50.5855C221.407 47.1575 222.549 43.5762 222.708 39.8381ZM236.082 40.2777C235.765 47.4196 233.084 53.5912 228.034 58.7908C222.984 63.991 216.71 66.5914 209.215 66.5914C202.982 66.5914 198.247 64.6112 195.014 60.6515C192.648 57.7042 191.344 54.0171 191.109 49.594C190.711 42.9186 193.156 36.7844 198.448 31.1962C204.127 24.9873 211.266 21.8836 219.868 21.8836C225.388 21.8836 229.57 23.71 232.413 27.356C235.097 30.6955 236.318 35.0023 236.082 40.2777Z" fill="#17272E"/>
<path d="M271.61 66.4244L275.062 55.4301H293.138L296.59 66.4244H310.192L292.525 14.0608H275.675L258.008 66.4244H271.61ZM278.079 45.8165L283.883 27.254H284.292L290.121 45.8165H278.079ZM331.702 67.1659C342.747 67.1659 349.599 60.7483 349.932 51.0324H338.247C337.787 55.2 335.281 57.4756 331.855 57.4756C327.457 57.4756 324.594 53.7682 324.594 46.7881C324.594 39.8591 327.483 36.1517 331.855 36.1517C335.435 36.1517 337.761 38.5807 338.247 42.5949H349.932C349.651 32.9301 342.594 26.6403 331.676 26.6403C319.327 26.6403 311.861 34.8733 311.861 46.9159C311.861 58.9074 319.276 67.1659 331.702 67.1659ZM370.674 66.9869C376.606 66.9869 380.134 63.6886 381.719 60.058H382.103V66.4244H394.478V27.1517H381.975V33.8761H381.719C380.237 30.271 376.81 26.6403 370.623 26.6403C362.415 26.6403 354.975 32.9557 354.975 46.8136C354.975 60.1858 362.006 66.9869 370.674 66.9869ZM375.021 57.2455C370.393 57.2455 367.81 53.129 367.81 46.7881C367.81 40.4727 370.367 36.4074 375.021 36.4074C379.597 36.4074 382.256 40.3705 382.256 46.7881C382.256 53.1546 379.572 57.2455 375.021 57.2455ZM416.729 66.9869C422.661 66.9869 426.189 63.6886 427.774 60.058H428.158V66.4244H440.533V14.0608H428.03V33.8761H427.774C426.291 30.271 422.865 26.6403 416.678 26.6403C408.47 26.6403 401.03 32.9557 401.03 46.8136C401.03 60.1858 408.061 66.9869 416.729 66.9869ZM421.075 57.2455C416.447 57.2455 413.865 53.129 413.865 46.7881C413.865 40.4727 416.422 36.4074 421.075 36.4074C425.652 36.4074 428.311 40.3705 428.311 46.7881C428.311 53.1546 425.626 57.2455 421.075 57.2455ZM466.798 67.1659C477.102 67.1659 483.877 62.1801 485.309 54.4585L473.829 54.1261C472.857 56.7341 470.3 58.1403 467.028 58.1403C462.221 58.1403 459.255 54.9443 459.255 50.1375V49.8051H485.437V46.6858C485.437 33.7483 477.562 26.6403 466.414 26.6403C454.55 26.6403 446.931 34.771 446.931 46.9415C446.931 59.521 454.448 67.1659 466.798 67.1659ZM459.255 42.5438C459.434 38.6318 462.528 35.6659 466.67 35.6659C470.786 35.6659 473.752 38.5296 473.803 42.5438H459.255ZM491.822 66.4244H504.325V43.183C504.325 39.2966 506.601 36.8165 509.874 36.8165C513.121 36.8165 515.268 39.0921 515.268 42.7227V66.4244H527.286V42.9784C527.286 39.2199 529.357 36.8165 532.808 36.8165C535.979 36.8165 538.229 38.9386 538.229 42.8506V66.4244H550.732V39.9869C550.732 31.6773 545.618 26.6403 538.203 26.6403C532.399 26.6403 527.822 29.683 526.365 34.3619H525.956C524.908 29.6574 520.689 26.6403 515.243 26.6403C509.874 26.6403 505.783 29.5807 504.146 34.3619H503.712V27.1517H491.822V66.4244ZM564.717 81.1517C573.717 81.1517 578.192 76.6006 580.365 70.183L595.169 27.1517H582.001L574.663 55.1744H574.254L567.018 27.1517H553.928L567.888 67.8563L567.402 69.0324C566.2 71.9727 563.49 72.0239 559.808 70.8222L557.047 79.8989C558.939 80.6659 561.726 81.1517 564.717 81.1517Z" fill="#006ACC"/>
</svg>
